<svg xmlns="http://www.w3.org/2000/svg" xmlns:xlink="http://www.w3.org/1999/xlink" width="65" height="64" viewBox="0 0 65 64">
    <defs>
        <path id="03kr7locfc" d="M0.038 0L0.122 0 0.122 0.16 0.038 0.16z"/>
        <path id="sguybhdooe" d="M0 0L45.962 0 45.962 54.91 0 54.91z"/>
        <rect id="3yyc1nvl8a" width="64.487" height="64" x="0" y="0" rx="4"/>
    </defs>
    <g fill="none" fill-rule="evenodd">
        <g>
            <g>
                <g transform="translate(-32.000000, -68.000000) translate(35.000000, 71.000000) translate(-2.743297, -3.000000)">
                    <mask id="ylnif6os5b" fill="#fff">
                        <use xlink:href="#3yyc1nvl8a"/>
                    </mask>
                    <use fill="#D7D8D9" xlink:href="#3yyc1nvl8a"/>
                    <g mask="url(#ylnif6os5b)">
                        <g>
                            <path fill="#E3A3C3" d="M38.76 49.343c-.008.032-.866 3.243-.696 5.224.015.174-.114.328-.288.343l-.028.001c-.162 0-.3-.125-.314-.29-.18-2.093.679-5.308.716-5.444.045-.17.218-.27.388-.224.168.046.268.22.222.39m6.57 5.25v-6.026c.023-5.9-2.987-9.317-9.475-10.753l-6.996-1.8c-1.024 7.655-4.302 11.94-4.955 12.728-.084.102-.184.189-.296.258l-.014.009c-.197.122-.418.183-.639.183-.255 0-.51-.081-.725-.242-.076-.057-.145-.122-.205-.193-.652-.776-3.905-4.979-4.963-12.6l-6.914 1.815c-6.5 1.44-9.51 4.856-9.487 10.755 0 .05-.017 5.326-.028 5.847l1.943.019 5.144.048c-.003-.024-.005-.049-.003-.074.17-1.982-.687-5.192-.696-5.224-.046-.17.054-.344.223-.39.168-.045.342.055.388.224.036.136.895 3.351.716 5.444l-.005.026L45.476 55l.01-.135c-.093-.055-.157-.156-.157-.272" transform="translate(9.000000, 10.000000)"/>
                            <g transform="translate(9.000000, 10.000000) translate(45.841382, 48.170293)">
                                <mask id="j5dy728s3d" fill="#fff">
                                    <use xlink:href="#03kr7locfc"/>
                                </mask>
                                <path fill="#E3A3C3" d="M.118.084V.066v.028-.01z" mask="url(#j5dy728s3d)"/>
                            </g>
                            <path fill="#FFF" d="M26.937 35.274v-3.108c-.385.095-1.538.255-3.878-.357-.166.012-.285.015-.349.015l-.052-.001H22.583c-1.33 0-2.574-.345-3.709-1.017v4.63c0 .144-.097.27-.236.306l-.96.252c.431 3.16 1.295 6.09 2.572 8.712 1.025 2.105 1.988 3.32 2.259 3.641.029.035.06.065.098.093.193.144.451.155.656.028.066-.041.114-.083.155-.132.635-.766 3.834-4.952 4.824-12.48l-1.067-.275c-.14-.036-.238-.162-.238-.307M26.937 30.463l-.119.074c.042-.023.081-.047.12-.07v-.004zM32.376 21.235c.78 0 1.416-.637 1.416-1.421v-3.4c0-.761-.6-1.383-1.35-1.418v3.83c0 .515-.023 1.022-.066 1.523v.886z" transform="translate(9.000000, 10.000000)"/>
                            <path fill="#FFF" d="M19.403 26.136c-.443-.115-.254-.804.19-.689 2.376.616 4.951.343 7.142-.77.408-.207.768.41.36.617-2.364 1.2-5.125 1.507-7.692.842m-2.447-8.356c-.357.357-.908-.197-.552-.554.498-.498 1.223-.779 1.928-.698.72.083 1.35.473 1.755 1.074.119.176.033.434-.14.536-.19.112-.415.034-.534-.14-.556-.826-1.745-.93-2.457-.218m-1.413-3.06c-.1-.172-.05-.446.14-.536 1.32-.628 2.751-.751 4.171-.413.49.116.28.871-.207.755-1.204-.287-2.447-.2-3.57.334-.191.091-.42.055-.534-.14m5.65 6.751c.094-.255.209-.501.294-.76.142-.435.22-.884.254-1.34.03-.4.654-.402.624 0-.056.74-.225 1.42-.505 2.103-.038.092-.077.185-.105.28l-.02.086c0 .008-.006.059-.005.083.02.333.246.651.58.704.168.027.26.237.218.386-.048.176-.217.245-.384.218-.771-.122-1.21-1.058-.951-1.76m3.773-7.87c1.42-.339 2.85-.215 4.171.413.192.09.24.365.14.535-.113.194-.343.231-.534.14-1.123-.533-2.366-.62-3.57-.333-.489.116-.695-.64-.207-.756m3.336 4.024c-.712-.712-1.9-.608-2.458.217-.118.175-.341.253-.534.14-.173-.101-.258-.36-.14-.535.406-.602 1.035-.992 1.756-1.074.705-.08 1.429.2 1.928.698.356.356-.196.91-.552.554m-5.675 13.563c.02 0 .04 0 .06.002.05.001 5.172.15 7.912-6.255.803-1.879 1.21-3.934 1.21-6.108v-6.005c0-.23-.097-.452-.275-.627-1.098-1.075-1.47-2.39-1.59-3.304l-.017-.144c-.076-.626-.233-1.928-1.089-2.35-1.504-.741-2.321-.257-3.355.356-.772.457-1.643.976-2.892.942-1.082-.029-1.919-.445-2.657-.811-1.072-.532-1.999-.993-3.512-.317-.968.431-1.113 1.672-1.24 2.767-.03.248-.057.482-.094.7-.2 1.192-.808 1.908-1.284 2.3-.2.164-.315.415-.315.688v4.767c0 2.822.64 5.582 1.853 7.984 1.812 3.594 4.248 5.415 7.24 5.415h.045M11.686 16.21v3.808c0 .671.544 1.217 1.213 1.217v-6.243c-.669 0-1.213.546-1.213 1.217" transform="translate(9.000000, 10.000000)"/>
                            <path fill="#141E3E" d="M19.647 14.526c.488.116.696-.639.207-.755-1.42-.338-2.85-.215-4.171.413-.19.09-.24.364-.14.536.114.195.343.231.534.14 1.123-.534 2.366-.62 3.57-.334M25.174 14.355c1.203-.286 2.446-.2 3.57.335.19.09.42.053.533-.14.1-.171.052-.445-.14-.536-1.32-.628-2.751-.752-4.17-.414-.49.117-.283.872.207.755" transform="translate(9.000000, 10.000000)"/>
                            <g transform="translate(9.000000, 10.000000) translate(0.000000, 0.000000)">
                                <mask id="i4kp1f0ajf" fill="#fff">
                                    <use xlink:href="#sguybhdooe"/>
                                </mask>
                                <path fill="#141E3E" d="M23.418 48.336c-.04.05-.089.091-.155.132-.205.127-.463.116-.656-.028-.037-.028-.07-.058-.098-.093-.271-.322-1.234-1.536-2.259-3.641-1.277-2.623-2.141-5.553-2.572-8.712l.96-.252c.14-.036.236-.162.236-.307v-4.629c1.135.672 2.378 1.016 3.709 1.016H22.658c.003.001.02.002.052.002.064 0 .183-.003.349-.016 2.34.613 3.493.454 3.878.357v3.109c0 .145.098.271.238.307l1.067.275c-.99 7.528-4.189 11.714-4.824 12.48zm3.52-17.873v.003c-.039.024-.078.048-.12.07l.12-.073zm-11.597-4.69c-1.212-2.403-1.852-5.163-1.852-7.985v-4.767c0-.273.115-.524.315-.688.476-.392 1.085-1.108 1.284-2.3.037-.218.064-.452.093-.7.128-1.095.273-2.336 1.241-2.767 1.513-.676 2.44-.215 3.512.317.738.367 1.575.782 2.657.811 1.249.034 2.12-.485 2.892-.942 1.034-.613 1.85-1.097 3.355-.356.857.422 1.013 1.724 1.088 2.35l.018.144c.12.914.492 2.229 1.59 3.304.178.175.276.397.276.627v6.005c0 2.174-.408 4.23-1.211 6.108-2.74 6.406-7.862 6.256-7.913 6.255l-.06-.002h-.045c-2.99 0-5.427-1.822-7.24-5.415zm17.035-5.424c.043-.5.066-1.008.066-1.523v-3.83c.75.035 1.35.657 1.35 1.418v3.4c0 .784-.635 1.421-1.416 1.421-.037 0-.071.008-.104.02.043-.3.077-.602.104-.906zm13.586 28.22c0-.104-.003-.204-.005-.306v-.027c-.051-3.229-1.043-5.81-2.956-7.672-1.628-1.584-3.92-2.686-7-3.368l-8.431-2.169v-4.796c0-.063-.019-.122-.05-.171 1.311-.98 2.646-2.505 3.66-4.876.46-1.075.795-2.206 1.004-3.38.053.04.12.066.192.066 1.13 0 2.049-.922 2.049-2.056v-3.4c0-.95-.647-1.75-1.521-1.985.253-.981.392-2.019.392-3.097C33.296 4.977 28.606 0 22.619 0c-5.987 0-10.677 4.977-10.677 11.332 0 1.084.14 2.127.396 3.113-.744.24-1.284.94-1.284 1.764v3.81c0 1.02.827 1.851 1.845 1.851.175 0 .316-.142.316-.317 0-.176-.141-.318-.316-.318-.669 0-1.213-.546-1.213-1.217V16.21c0-.67.544-1.217 1.213-1.217v4.052c.162 2.48.802 4.883 1.878 7.015.963 1.91 2.13 3.362 3.465 4.331v4.8l-.84.22c-.038-.01-.079-.013-.12-.008-.071.009-.133.041-.18.087L10 37.355c-3.09.684-5.382 1.787-7.01 3.37C1.012 42.651.015 45.344.03 48.73.03 49.1.008 54.401.001 54.57c-.012.175.12.327.293.34h.023c.164 0 .303-.128.315-.296v-.022l.001-.018c.01-.52.029-5.797.028-5.847-.023-5.899 2.987-9.315 9.487-10.755l6.914-1.816c1.058 7.622 4.311 11.825 4.963 12.6.06.072.129.137.205.194.216.16.47.242.725.242.221 0 .442-.06.64-.183l.013-.009c.112-.07.212-.156.296-.258.653-.787 3.93-5.073 4.955-12.728l6.996 1.8c6.488 1.436 9.498 4.853 9.474 10.753v6.026c0 .116.064.217.157.272.047.028.101.045.16.045.174 0 .316-.142.316-.317v-6.025z" mask="url(#i4kp1f0ajf)"/>
                            </g>
                            <path fill="#141E3E" d="M19.413 17.998c.118.174.344.252.534.14.173-.101.259-.36.14-.536-.406-.601-1.035-.99-1.755-1.073-.705-.082-1.43.2-1.928.698-.356.356.195.91.552.553.712-.712 1.9-.608 2.457.218M26.926 16.372c-.72.082-1.35.472-1.756 1.074-.118.175-.033.434.14.535.193.113.416.035.534-.14.557-.826 1.746-.93 2.458-.217.356.356.908-.198.552-.554-.5-.499-1.223-.779-1.928-.698M26.735 24.677c-2.19 1.113-4.766 1.386-7.142.77-.444-.115-.633.574-.19.689 2.567.665 5.328.359 7.692-.842.408-.208.048-.824-.36-.617M22.144 23.231c.167.027.336-.042.384-.218.041-.15-.05-.359-.218-.386-.334-.053-.56-.371-.58-.704-.001-.024.005-.075.005-.083.006-.028.012-.057.02-.085.028-.096.067-.189.105-.281.28-.682.45-1.364.505-2.103.03-.402-.594-.4-.625 0-.034.455-.111.905-.253 1.34-.085.259-.2.505-.294.76-.259.702.18 1.638.951 1.76M38.538 48.953c-.17-.045-.343.055-.388.224-.037.136-.896 3.351-.716 5.444.014.165.152.29.314.29h.028c.174-.016.303-.17.288-.344-.17-1.98.688-5.192.696-5.224.046-.17-.054-.344-.222-.39M7.632 49.177c-.046-.17-.22-.27-.388-.224-.169.046-.269.22-.223.39.009.032.866 3.242.696 5.224-.002.025 0 .05.003.074.022.142.137.256.285.27h.028c.153 0 .284-.112.31-.264l.005-.026c.179-2.093-.68-5.308-.716-5.444" transform="translate(9.000000, 10.000000)"/>
                        </g>
                    </g>
                </g>
            </g>
        </g>
    </g>
</svg>
